<mxfile host="Electron" modified="2024-04-21T04:41:05.167Z" agent="Mozilla/5.0 (Windows NT 10.0; Win64; x64) AppleWebKit/537.36 (KHTML, like Gecko) draw.io/24.2.5 Chrome/120.0.6099.109 Electron/28.1.0 Safari/537.36" etag="WAPL0Hyk39sjqNOFjBWS" version="24.2.5" type="device">
  <diagram name="第 1 页" id="ftXndGDlVitekL8Z7LTs">
    <mxGraphModel dx="3860" dy="1286" grid="1" gridSize="10" guides="1" tooltips="1" connect="1" arrows="1" fold="1" page="1" pageScale="1" pageWidth="827" pageHeight="1169" math="0" shadow="0">
      <root>
        <mxCell id="0" />
        <mxCell id="1" parent="0" />
        <mxCell id="x556yvXe_RrFVGh1an9g-4" value="" style="group" vertex="1" connectable="0" parent="1">
          <mxGeometry x="-460" y="40" width="186" height="123.05555555555554" as="geometry" />
        </mxCell>
        <mxCell id="x556yvXe_RrFVGh1an9g-1" value="" style="ellipse;whiteSpace=wrap;html=1;aspect=fixed;fillColor=none;dashed=1;strokeWidth=1;strokeColor=#999999;" vertex="1" parent="x556yvXe_RrFVGh1an9g-4">
          <mxGeometry x="32.5" width="75" height="75" as="geometry" />
        </mxCell>
        <mxCell id="-L_-oSXdthVAtAZm4M3s-21" value="" style="ellipse;whiteSpace=wrap;html=1;aspect=fixed;fillColor=none;dashed=1;strokeWidth=1;strokeColor=#999999;" parent="x556yvXe_RrFVGh1an9g-4" vertex="1">
          <mxGeometry y="17.5" width="75" height="75" as="geometry" />
        </mxCell>
        <mxCell id="-L_-oSXdthVAtAZm4M3s-23" value="" style="endArrow=none;dashed=1;html=1;rounded=0;strokeWidth=1;dashPattern=1 2;fillColor=#f8cecc;strokeColor=#b85450;" parent="x556yvXe_RrFVGh1an9g-4" source="WCn-AC8gDAHUs6D61jNn-3" target="WCn-AC8gDAHUs6D61jNn-6" edge="1">
          <mxGeometry width="50" height="50" relative="1" as="geometry">
            <mxPoint x="106" y="102.5" as="sourcePoint" />
            <mxPoint x="156" y="52.5" as="targetPoint" />
          </mxGeometry>
        </mxCell>
        <mxCell id="WCn-AC8gDAHUs6D61jNn-15" value="" style="ellipse;whiteSpace=wrap;html=1;aspect=fixed;fillColor=#f8cecc;strokeColor=#b85450;container=0;" parent="x556yvXe_RrFVGh1an9g-4" vertex="1">
          <mxGeometry x="97.5" y="42.5" width="10" height="10" as="geometry" />
        </mxCell>
        <mxCell id="WCn-AC8gDAHUs6D61jNn-17" value="" style="ellipse;whiteSpace=wrap;html=1;aspect=fixed;fillColor=#dae8fc;strokeColor=#6c8ebf;container=0;" parent="x556yvXe_RrFVGh1an9g-4" vertex="1">
          <mxGeometry x="166" y="52.5" width="10" height="10" as="geometry" />
        </mxCell>
        <mxCell id="WCn-AC8gDAHUs6D61jNn-18" value="" style="ellipse;whiteSpace=wrap;html=1;aspect=fixed;fillColor=#f8cecc;strokeColor=#b85450;container=0;" parent="x556yvXe_RrFVGh1an9g-4" vertex="1">
          <mxGeometry x="136" y="52.5" width="10" height="10" as="geometry" />
        </mxCell>
        <mxCell id="WCn-AC8gDAHUs6D61jNn-3" value="" style="ellipse;whiteSpace=wrap;html=1;aspect=fixed;fillColor=#d5e8d4;strokeColor=#82b366;container=0;" parent="x556yvXe_RrFVGh1an9g-4" vertex="1">
          <mxGeometry x="32.5" y="50" width="10" height="10" as="geometry" />
        </mxCell>
        <mxCell id="x556yvXe_RrFVGh1an9g-2" value="" style="endArrow=none;dashed=1;html=1;rounded=0;strokeWidth=1;dashPattern=1 2;fillColor=#f8cecc;strokeColor=#b85450;exitX=0.939;exitY=0.283;exitDx=0;exitDy=0;exitPerimeter=0;" edge="1" parent="x556yvXe_RrFVGh1an9g-4" source="-L_-oSXdthVAtAZm4M3s-21" target="WCn-AC8gDAHUs6D61jNn-15">
          <mxGeometry width="50" height="50" relative="1" as="geometry">
            <mxPoint x="52" y="62.5" as="sourcePoint" />
            <mxPoint x="76" y="49.5" as="targetPoint" />
          </mxGeometry>
        </mxCell>
        <mxCell id="WCn-AC8gDAHUs6D61jNn-6" value="" style="ellipse;whiteSpace=wrap;html=1;aspect=fixed;fillColor=#f8cecc;strokeColor=#b85450;container=0;" parent="x556yvXe_RrFVGh1an9g-4" vertex="1">
          <mxGeometry x="65" y="32.5" width="10" height="10" as="geometry" />
        </mxCell>
        <mxCell id="x556yvXe_RrFVGh1an9g-3" value="" style="group" vertex="1" connectable="0" parent="x556yvXe_RrFVGh1an9g-4">
          <mxGeometry x="96" y="72.5" width="90" height="50.55555555555554" as="geometry" />
        </mxCell>
        <mxCell id="WCn-AC8gDAHUs6D61jNn-133" value="" style="rounded=0;whiteSpace=wrap;html=1;strokeColor=none;" parent="x556yvXe_RrFVGh1an9g-3" vertex="1">
          <mxGeometry width="90" height="50" as="geometry" />
        </mxCell>
        <mxCell id="WCn-AC8gDAHUs6D61jNn-127" value="" style="ellipse;whiteSpace=wrap;html=1;aspect=fixed;fillColor=#d5e8d4;strokeColor=#82b366;container=0;" parent="x556yvXe_RrFVGh1an9g-3" vertex="1">
          <mxGeometry x="9.473684210526315" y="7.7777777777777715" width="7.681755829903979" height="7.681755829903979" as="geometry" />
        </mxCell>
        <mxCell id="WCn-AC8gDAHUs6D61jNn-129" value="：起点" style="text;html=1;align=center;verticalAlign=middle;whiteSpace=wrap;rounded=0;fontFamily=宋体;" parent="x556yvXe_RrFVGh1an9g-3" vertex="1">
          <mxGeometry x="26.315789473684205" y="3.8888888888888857" width="52.63157894736842" height="15.555555555555555" as="geometry" />
        </mxCell>
        <mxCell id="WCn-AC8gDAHUs6D61jNn-130" value="：终点" style="text;html=1;align=center;verticalAlign=middle;whiteSpace=wrap;rounded=0;fontFamily=宋体;" parent="x556yvXe_RrFVGh1an9g-3" vertex="1">
          <mxGeometry x="26.315789473684205" y="19.444444444444457" width="52.63157894736842" height="15.555555555555555" as="geometry" />
        </mxCell>
        <mxCell id="WCn-AC8gDAHUs6D61jNn-132" value="：轨迹点" style="text;html=1;align=center;verticalAlign=middle;whiteSpace=wrap;rounded=0;fontFamily=宋体;" parent="x556yvXe_RrFVGh1an9g-3" vertex="1">
          <mxGeometry x="31.578947368421055" y="35" width="52.63157894736842" height="15.555555555555555" as="geometry" />
        </mxCell>
        <mxCell id="WCn-AC8gDAHUs6D61jNn-134" value="" style="ellipse;whiteSpace=wrap;html=1;aspect=fixed;fillColor=#dae8fc;strokeColor=#6c8ebf;container=0;" parent="x556yvXe_RrFVGh1an9g-3" vertex="1">
          <mxGeometry x="9.473684210526315" y="23.333333333333343" width="7.681755829903979" height="7.681755829903979" as="geometry" />
        </mxCell>
        <mxCell id="WCn-AC8gDAHUs6D61jNn-158" value="" style="ellipse;whiteSpace=wrap;html=1;aspect=fixed;fillColor=#f8cecc;strokeColor=#b85450;container=0;" parent="x556yvXe_RrFVGh1an9g-3" vertex="1">
          <mxGeometry x="9.473684210526315" y="38.888888888888886" width="7.681755829903979" height="7.681755829903979" as="geometry" />
        </mxCell>
        <mxCell id="x556yvXe_RrFVGh1an9g-38" value="" style="group" vertex="1" connectable="0" parent="1">
          <mxGeometry x="-990" y="160" width="410" height="1160" as="geometry" />
        </mxCell>
        <mxCell id="x556yvXe_RrFVGh1an9g-7" value="" style="edgeStyle=orthogonalEdgeStyle;rounded=0;orthogonalLoop=1;jettySize=auto;html=1;" edge="1" parent="x556yvXe_RrFVGh1an9g-38" source="x556yvXe_RrFVGh1an9g-5" target="x556yvXe_RrFVGh1an9g-6">
          <mxGeometry relative="1" as="geometry" />
        </mxCell>
        <mxCell id="x556yvXe_RrFVGh1an9g-5" value="&lt;font style=&quot;font-size: 14px;&quot; face=&quot;宋体&quot;&gt;开始&lt;/font&gt;" style="strokeWidth=2;html=1;shape=mxgraph.flowchart.start_1;whiteSpace=wrap;" vertex="1" parent="x556yvXe_RrFVGh1an9g-38">
          <mxGeometry x="136" width="100" height="60" as="geometry" />
        </mxCell>
        <mxCell id="x556yvXe_RrFVGh1an9g-25" style="edgeStyle=orthogonalEdgeStyle;rounded=0;orthogonalLoop=1;jettySize=auto;html=1;" edge="1" parent="x556yvXe_RrFVGh1an9g-38" source="x556yvXe_RrFVGh1an9g-6" target="x556yvXe_RrFVGh1an9g-8">
          <mxGeometry relative="1" as="geometry" />
        </mxCell>
        <mxCell id="x556yvXe_RrFVGh1an9g-6" value="&lt;font face=&quot;Times New Roman&quot;&gt;GeoHashSet = {encode(Pn)}, List = []&lt;/font&gt;" style="whiteSpace=wrap;html=1;strokeWidth=2;fontFamily=宋体;fontSize=14;" vertex="1" parent="x556yvXe_RrFVGh1an9g-38">
          <mxGeometry x="61" y="110" width="250" height="60" as="geometry" />
        </mxCell>
        <mxCell id="x556yvXe_RrFVGh1an9g-26" value="" style="edgeStyle=orthogonalEdgeStyle;rounded=0;orthogonalLoop=1;jettySize=auto;html=1;" edge="1" parent="x556yvXe_RrFVGh1an9g-38" source="x556yvXe_RrFVGh1an9g-8" target="x556yvXe_RrFVGh1an9g-9">
          <mxGeometry relative="1" as="geometry" />
        </mxCell>
        <mxCell id="x556yvXe_RrFVGh1an9g-8" value="&lt;font face=&quot;Times New Roman&quot;&gt;{encode(O),encode(D)}→&lt;/font&gt;&lt;font face=&quot;Times New Roman&quot;&gt;GeoHashSet,&lt;/font&gt;&lt;font face=&quot;Times New Roman&quot;&gt;&lt;br&gt;&lt;/font&gt;&lt;div&gt;&lt;span style=&quot;font-family: &amp;quot;Times New Roman&amp;quot;; background-color: initial;&quot;&gt;encode(O)&lt;/span&gt;&lt;span style=&quot;font-family: &amp;quot;Times New Roman&amp;quot;; background-color: initial;&quot;&gt;→&lt;/span&gt;&lt;span style=&quot;font-family: &amp;quot;Times New Roman&amp;quot;; background-color: initial;&quot;&gt;List&amp;nbsp;&lt;/span&gt;&lt;/div&gt;" style="whiteSpace=wrap;html=1;strokeWidth=2;fontFamily=宋体;fontSize=14;" vertex="1" parent="x556yvXe_RrFVGh1an9g-38">
          <mxGeometry x="61" y="200" width="250" height="60" as="geometry" />
        </mxCell>
        <mxCell id="x556yvXe_RrFVGh1an9g-21" value="" style="edgeStyle=orthogonalEdgeStyle;rounded=0;orthogonalLoop=1;jettySize=auto;html=1;" edge="1" parent="x556yvXe_RrFVGh1an9g-38" source="x556yvXe_RrFVGh1an9g-9" target="x556yvXe_RrFVGh1an9g-11">
          <mxGeometry relative="1" as="geometry" />
        </mxCell>
        <mxCell id="x556yvXe_RrFVGh1an9g-9" value="&lt;font face=&quot;Times New Roman&quot;&gt;current = List &lt;/font&gt;中最后一个点&lt;font face=&quot;Times New Roman&quot;&gt;,&lt;/font&gt;&lt;div&gt;&lt;font face=&quot;Times New Roman&quot;&gt;distance = &lt;/font&gt;&lt;font face=&quot;宋体&quot;&gt;无穷大&lt;/font&gt;&lt;font face=&quot;Times New Roman&quot;&gt;,&lt;/font&gt;&lt;/div&gt;&lt;div&gt;&lt;font face=&quot;Times New Roman&quot;&gt;nearest = None&lt;/font&gt;&lt;/div&gt;" style="whiteSpace=wrap;html=1;strokeWidth=2;fontFamily=宋体;fontSize=14;" vertex="1" parent="x556yvXe_RrFVGh1an9g-38">
          <mxGeometry x="61" y="290" width="250" height="60" as="geometry" />
        </mxCell>
        <mxCell id="x556yvXe_RrFVGh1an9g-34" value="" style="edgeStyle=orthogonalEdgeStyle;rounded=0;orthogonalLoop=1;jettySize=auto;html=1;" edge="1" parent="x556yvXe_RrFVGh1an9g-38" source="x556yvXe_RrFVGh1an9g-10" target="x556yvXe_RrFVGh1an9g-30">
          <mxGeometry relative="1" as="geometry" />
        </mxCell>
        <mxCell id="x556yvXe_RrFVGh1an9g-37" style="edgeStyle=orthogonalEdgeStyle;rounded=0;orthogonalLoop=1;jettySize=auto;html=1;entryX=1;entryY=0.5;entryDx=0;entryDy=0;" edge="1" parent="x556yvXe_RrFVGh1an9g-38" source="x556yvXe_RrFVGh1an9g-10" target="x556yvXe_RrFVGh1an9g-9">
          <mxGeometry relative="1" as="geometry">
            <mxPoint x="360" y="310" as="targetPoint" />
            <Array as="points">
              <mxPoint x="410" y="910" />
              <mxPoint x="410" y="320" />
            </Array>
          </mxGeometry>
        </mxCell>
        <mxCell id="x556yvXe_RrFVGh1an9g-10" value="&lt;span style=&quot;font-family: &amp;quot;Times New Roman&amp;quot;; font-size: 14px;&quot;&gt;GeoHashSet &lt;/span&gt;&lt;span style=&quot;font-size: 14px;&quot;&gt;&lt;font face=&quot;宋体&quot;&gt;为空&lt;/font&gt;&lt;/span&gt;&lt;span style=&quot;font-family: &amp;quot;Times New Roman&amp;quot;; font-size: 14px;&quot;&gt;?&lt;/span&gt;" style="strokeWidth=2;html=1;shape=mxgraph.flowchart.decision;whiteSpace=wrap;" vertex="1" parent="x556yvXe_RrFVGh1an9g-38">
          <mxGeometry x="100.87" y="870" width="170.25" height="80" as="geometry" />
        </mxCell>
        <mxCell id="x556yvXe_RrFVGh1an9g-15" value="" style="edgeStyle=orthogonalEdgeStyle;rounded=0;orthogonalLoop=1;jettySize=auto;html=1;" edge="1" parent="x556yvXe_RrFVGh1an9g-38" source="x556yvXe_RrFVGh1an9g-11" target="x556yvXe_RrFVGh1an9g-13">
          <mxGeometry relative="1" as="geometry" />
        </mxCell>
        <mxCell id="x556yvXe_RrFVGh1an9g-11" value="&lt;div&gt;&lt;font face=&quot;Times New Roman&quot;&gt;point =&lt;/font&gt;&lt;font face=&quot;Times New Roman&quot;&gt;&amp;nbsp;&lt;/font&gt;&lt;span style=&quot;font-family: &amp;quot;Times New Roman&amp;quot;; background-color: initial;&quot;&gt;GeoHashSet &lt;/span&gt;&lt;span style=&quot;background-color: initial;&quot;&gt;&lt;font face=&quot;宋体&quot;&gt;顺序依次访问点&lt;/font&gt;&lt;font face=&quot;Times New Roman&quot;&gt;,&lt;/font&gt;&lt;/span&gt;&lt;/div&gt;&lt;div&gt;&lt;span style=&quot;font-family: &amp;quot;Times New Roman&amp;quot;;&quot;&gt;current_distance = &lt;/span&gt;&lt;font face=&quot;宋体&quot;&gt;计算 &lt;/font&gt;&lt;span style=&quot;font-family: &amp;quot;Times New Roman&amp;quot;;&quot;&gt;point &lt;/span&gt;&lt;font face=&quot;宋体&quot;&gt;与 &lt;/font&gt;&lt;span style=&quot;font-family: &amp;quot;Times New Roman&amp;quot;;&quot;&gt;current &lt;/span&gt;&lt;font face=&quot;宋体&quot;&gt;之间的曼哈顿距离&lt;/font&gt;&lt;br&gt;&lt;/div&gt;" style="whiteSpace=wrap;html=1;strokeWidth=2;fontFamily=宋体;fontSize=14;" vertex="1" parent="x556yvXe_RrFVGh1an9g-38">
          <mxGeometry x="61" y="400" width="250" height="60" as="geometry" />
        </mxCell>
        <mxCell id="x556yvXe_RrFVGh1an9g-28" value="" style="edgeStyle=orthogonalEdgeStyle;rounded=0;orthogonalLoop=1;jettySize=auto;html=1;" edge="1" parent="x556yvXe_RrFVGh1an9g-38" source="x556yvXe_RrFVGh1an9g-12" target="x556yvXe_RrFVGh1an9g-27">
          <mxGeometry relative="1" as="geometry" />
        </mxCell>
        <mxCell id="x556yvXe_RrFVGh1an9g-12" value="&lt;div&gt;&lt;font face=&quot;Times New Roman&quot;&gt;point&amp;nbsp;&lt;/font&gt;&lt;span style=&quot;font-family: &amp;quot;Times New Roman&amp;quot;; background-color: initial;&quot;&gt;→ List,&lt;/span&gt;&lt;/div&gt;&lt;div&gt;&lt;span style=&quot;font-family: &amp;quot;Times New Roman&amp;quot;;&quot;&gt;GeoHashSet &lt;/span&gt;移除&lt;span style=&quot;font-family: &amp;quot;Times New Roman&amp;quot;;&quot;&gt; point&lt;/span&gt;&lt;span style=&quot;font-family: &amp;quot;Times New Roman&amp;quot;; background-color: initial;&quot;&gt;&lt;br&gt;&lt;/span&gt;&lt;/div&gt;&lt;div&gt;&lt;span style=&quot;font-family: &amp;quot;Times New Roman&amp;quot;;&quot;&gt;distance =&amp;nbsp;&lt;/span&gt;&lt;span style=&quot;font-family: &amp;quot;Times New Roman&amp;quot;; background-color: initial;&quot;&gt;current_distance&lt;/span&gt;&lt;/div&gt;&lt;div&gt;&lt;span style=&quot;font-family: &amp;quot;Times New Roman&amp;quot;;&quot;&gt;nearest = point&lt;/span&gt;&lt;span style=&quot;font-family: &amp;quot;Times New Roman&amp;quot;; background-color: initial;&quot;&gt;&lt;br&gt;&lt;/span&gt;&lt;/div&gt;" style="whiteSpace=wrap;html=1;strokeWidth=2;fontFamily=宋体;fontSize=14;" vertex="1" parent="x556yvXe_RrFVGh1an9g-38">
          <mxGeometry x="60.99000000000001" y="610" width="250" height="80" as="geometry" />
        </mxCell>
        <mxCell id="x556yvXe_RrFVGh1an9g-14" value="" style="edgeStyle=orthogonalEdgeStyle;rounded=0;orthogonalLoop=1;jettySize=auto;html=1;" edge="1" parent="x556yvXe_RrFVGh1an9g-38" source="x556yvXe_RrFVGh1an9g-13" target="x556yvXe_RrFVGh1an9g-12">
          <mxGeometry relative="1" as="geometry" />
        </mxCell>
        <mxCell id="x556yvXe_RrFVGh1an9g-17" style="edgeStyle=orthogonalEdgeStyle;rounded=0;orthogonalLoop=1;jettySize=auto;html=1;entryX=1;entryY=0.5;entryDx=0;entryDy=0;exitX=1;exitY=0.5;exitDx=0;exitDy=0;exitPerimeter=0;" edge="1" parent="x556yvXe_RrFVGh1an9g-38" source="x556yvXe_RrFVGh1an9g-13" target="x556yvXe_RrFVGh1an9g-11">
          <mxGeometry relative="1" as="geometry">
            <mxPoint x="380" y="420" as="targetPoint" />
            <Array as="points">
              <mxPoint x="360" y="535" />
              <mxPoint x="360" y="430" />
            </Array>
          </mxGeometry>
        </mxCell>
        <mxCell id="x556yvXe_RrFVGh1an9g-13" value="&lt;span style=&quot;font-family: &amp;quot;Times New Roman&amp;quot;; font-size: 14px;&quot;&gt;current_distance &amp;lt;&amp;nbsp;&lt;/span&gt;&lt;span style=&quot;font-family: &amp;quot;Times New Roman&amp;quot;; font-size: 14px;&quot;&gt;distance?&lt;/span&gt;" style="strokeWidth=2;html=1;shape=mxgraph.flowchart.decision;whiteSpace=wrap;" vertex="1" parent="x556yvXe_RrFVGh1an9g-38">
          <mxGeometry x="85.87" y="490" width="200.25" height="90" as="geometry" />
        </mxCell>
        <mxCell id="x556yvXe_RrFVGh1an9g-29" value="" style="edgeStyle=orthogonalEdgeStyle;rounded=0;orthogonalLoop=1;jettySize=auto;html=1;" edge="1" parent="x556yvXe_RrFVGh1an9g-38" source="x556yvXe_RrFVGh1an9g-27" target="x556yvXe_RrFVGh1an9g-10">
          <mxGeometry relative="1" as="geometry" />
        </mxCell>
        <mxCell id="x556yvXe_RrFVGh1an9g-31" value="" style="edgeStyle=orthogonalEdgeStyle;rounded=0;orthogonalLoop=1;jettySize=auto;html=1;" edge="1" parent="x556yvXe_RrFVGh1an9g-38" source="x556yvXe_RrFVGh1an9g-27" target="x556yvXe_RrFVGh1an9g-30">
          <mxGeometry relative="1" as="geometry">
            <Array as="points">
              <mxPoint y="780" />
              <mxPoint y="1030" />
            </Array>
          </mxGeometry>
        </mxCell>
        <mxCell id="x556yvXe_RrFVGh1an9g-27" value="&lt;span style=&quot;font-family: &amp;quot;Times New Roman&amp;quot;; font-size: 14px;&quot;&gt;nearest = D&lt;/span&gt;&lt;span style=&quot;color: rgba(0, 0, 0, 0); font-family: monospace; font-size: 0px; text-align: start; text-wrap: nowrap;&quot;&gt;%3CmxGraphModel%3E%3Croot%3E%3CmxCell%20id%3D%220%22%2F%3E%3CmxCell%20id%3D%221%22%20parent%3D%220%22%2F%3E%3CmxCell%20id%3D%222%22%20value%3D%22%26lt%3Bspan%20style%3D%26quot%3Bfont-family%3A%20%26amp%3Bquot%3BTimes%20New%20Roman%26amp%3Bquot%3B%3B%20font-size%3A%2014px%3B%26quot%3B%26gt%3BGeoHashSet%20%26lt%3B%2Fspan%26gt%3B%26lt%3Bspan%20style%3D%26quot%3Bfont-size%3A%2014px%3B%26quot%3B%26gt%3B%26lt%3Bfont%20face%3D%26quot%3B%E5%AE%8B%E4%BD%93%26quot%3B%26gt%3B%E4%B8%BA%E7%A9%BA%26lt%3B%2Ffont%26gt%3B%26lt%3B%2Fspan%26gt%3B%26lt%3Bspan%20style%3D%26quot%3Bfont-family%3A%20%26amp%3Bquot%3BTimes%20New%20Roman%26amp%3Bquot%3B%3B%20font-size%3A%2014px%3B%26quot%3B%26gt%3B%3F%26lt%3B%2Fspan%26gt%3B%22%20style%3D%22strokeWidth%3D2%3Bhtml%3D1%3Bshape%3Dmxgraph.flowchart.decision%3BwhiteSpace%3Dwrap%3B%22%20vertex%3D%221%22%20parent%3D%221%22%3E%3CmxGeometry%20x%3D%22-819.14%22%20y%3D%22870%22%20width%3D%22170.25%22%20height%3D%22130%22%20as%3D%22geometry%22%2F%3E%3C%2FmxCell%3E%3C%2Froot%3E%3C%2FmxGraphModel%3E&lt;/span&gt;&lt;span style=&quot;color: rgba(0, 0, 0, 0); font-family: monospace; font-size: 0px; text-align: start; text-wrap: nowrap;&quot;&gt;%3CmxGraphModel%3E%3Croot%3E%3CmxCell%20id%3D%220%22%2F%3E%3CmxCell%20id%3D%221%22%20parent%3D%220%22%2F%3E%3CmxCell%20id%3D%222%22%20value%3D%22%26lt%3Bspan%20style%3D%26quot%3Bfont-family%3A%20%26amp%3Bquot%3BTimes%20New%20Roman%26amp%3Bquot%3B%3B%20font-size%3A%2014px%3B%26quot%3B%26gt%3BGeoHashSet%20%26lt%3B%2Fspan%26gt%3B%26lt%3Bspan%20style%3D%26quot%3Bfont-size%3A%2014px%3B%26quot%3B%26gt%3B%26lt%3Bfont%20face%3D%26quot%3B%E5%AE%8B%E4%BD%93%26quot%3B%26gt%3B%E4%B8%BA%E7%A9%BA%26lt%3B%2Ffont%26gt%3B%26lt%3B%2Fspan%26gt%3B%26lt%3Bspan%20style%3D%26quot%3Bfont-family%3A%20%26amp%3Bquot%3BTimes%20New%20Roman%26amp%3Bquot%3B%3B%20font-size%3A%2014px%3B%26quot%3B%26gt%3B%3F%26lt%3B%2Fspan%26gt%3B%22%20style%3D%22strokeWidth%3D2%3Bhtml%3D1%3Bshape%3Dmxgraph.flowchart.decision%3BwhiteSpace%3Dwrap%3B%22%20vertex%3D%221%22%20parent%3D%221%22%3E%3CmxGeometry%20x%3D%22-819.14%22%20y%3D%22870%22%20width%3D%22170.25%22%20height%3D%22130%22%20as%3D%22geometry%22%2F%3E%3C%2FmxCell%3E%3C%2Froot%3E%3C%2FmxGraphModel%3E&lt;/span&gt;&lt;span style=&quot;font-family: &amp;quot;Times New Roman&amp;quot;; font-size: 14px;&quot;&gt;?&lt;/span&gt;" style="strokeWidth=2;html=1;shape=mxgraph.flowchart.decision;whiteSpace=wrap;" vertex="1" parent="x556yvXe_RrFVGh1an9g-38">
          <mxGeometry x="100.38" y="740" width="170.25" height="80" as="geometry" />
        </mxCell>
        <mxCell id="x556yvXe_RrFVGh1an9g-33" value="" style="edgeStyle=orthogonalEdgeStyle;rounded=0;orthogonalLoop=1;jettySize=auto;html=1;" edge="1" parent="x556yvXe_RrFVGh1an9g-38" source="x556yvXe_RrFVGh1an9g-30" target="x556yvXe_RrFVGh1an9g-32">
          <mxGeometry relative="1" as="geometry" />
        </mxCell>
        <mxCell id="x556yvXe_RrFVGh1an9g-30" value="&lt;font face=&quot;Times New Roman&quot; style=&quot;font-size: 14px;&quot;&gt;decode(List),&lt;/font&gt;&lt;div&gt;&lt;font face=&quot;Times New Roman&quot; style=&quot;font-size: 14px;&quot;&gt;List = [O,...,D]&lt;/font&gt;&lt;/div&gt;" style="whiteSpace=wrap;html=1;strokeWidth=2;" vertex="1" parent="x556yvXe_RrFVGh1an9g-38">
          <mxGeometry x="81" y="1000" width="209" height="60" as="geometry" />
        </mxCell>
        <mxCell id="x556yvXe_RrFVGh1an9g-32" value="&lt;font face=&quot;宋体&quot;&gt;&lt;span style=&quot;font-size: 14px;&quot;&gt;结束&lt;/span&gt;&lt;/font&gt;" style="strokeWidth=2;html=1;shape=mxgraph.flowchart.start_1;whiteSpace=wrap;" vertex="1" parent="x556yvXe_RrFVGh1an9g-38">
          <mxGeometry x="136" y="1100" width="100" height="60" as="geometry" />
        </mxCell>
      </root>
    </mxGraphModel>
  </diagram>
</mxfile>
